<?xml version="1.0" encoding="UTF-8" standalone="no"?>
<!-- Generator: Adobe Illustrator 19.1.0, SVG Export Plug-In . SVG Version: 6.00 Build 0)  -->

<svg
   version="1.1"
   x="0px"
   y="0px"
   viewBox="0 0 64 64"
   style="enable-background:new 0 0 64 64;"
   xml:space="preserve"
   id="svg22"
   sodipodi:docname="kmpc.svg"
   inkscape:version="1.2.1 (9c6d41e410, 2022-07-14, custom)"
   xmlns:inkscape="http://www.inkscape.org/namespaces/inkscape"
   xmlns:sodipodi="http://sodipodi.sourceforge.net/DTD/sodipodi-0.dtd"
   xmlns="http://www.w3.org/2000/svg"
   xmlns:svg="http://www.w3.org/2000/svg"><defs
   id="defs26" /><sodipodi:namedview
   id="namedview24"
   pagecolor="#ffffff"
   bordercolor="#666666"
   borderopacity="1.0"
   inkscape:showpageshadow="2"
   inkscape:pageopacity="0.0"
   inkscape:pagecheckerboard="0"
   inkscape:deskcolor="#d1d1d1"
   showgrid="false"
   inkscape:zoom="6.5234375"
   inkscape:cx="-42.385629"
   inkscape:cy="51.736527"
   inkscape:window-width="1920"
   inkscape:window-height="1017"
   inkscape:window-x="0"
   inkscape:window-y="0"
   inkscape:window-maximized="1"
   inkscape:current-layer="Layer_1" />
<style
   type="text/css"
   id="style2">
	.st0{fill:#76C2AF;}
	.st1{opacity:0.2;}
	.st2{fill:#231F20;}
	.st3{fill:#FFFFFF;}
</style>
<g
   id="Layer_1"
   transform="matrix(0.90551085,0,0,0.90551085,2.8410929,2.9285882)">
	<g
   id="g6"
   style="fill:#0055d4"
   transform="matrix(1.0122034,0,0,1.0122034,-0.18889896,-0.2855243)">
		<circle
   class="st0"
   cx="32"
   cy="32"
   r="32"
   id="circle4"
   style="fill:#0055d4" />
	</g>
	<g
   class="st1"
   id="g12"
   transform="matrix(1.0122034,0,0,1.0122034,2.7753971,-2.2984425)">
		<g
   id="g10">
			<path
   class="st2"
   d="m 13.098567,49.789186 c 1.6,2.1 4.9,2.2 7.4,0.3 1,-0.8 2.8,-2.9 2.8,-7.2 v -13.3 l 19,-3.6 v 8.4 c 0,3 -2.4,3.7 -3.2,3.8 -0.1,0 -0.1,0 -0.2,0 0,0 -0.1,0 -0.1,0 v 0 c -1,0.2 -1.9,0.6 -2.8,1.2 -2.5,1.9 -3.2,5.1 -1.6,7.2 1.6,2.1 4.9,2.2 7.4,0.3 1.3,-1 2.5,-2.8 2.5,-5.7 v -22.3 c 0,-1.2 -1,-1.8 -2.1,-1.5 l -19.2,3.6 c -1.3,0.4 -1.8,1.7 -1.8,2.8 v 13 c 0,3 -2.7,4.4 -3.5,4.5 0,0 -0.1,0 -0.1,0 -0.1,0 -0.2,0 -0.2,0 v 0 c -0.9,0.2 -1.9,0.6 -2.7,1.2 -2.5,2 -3.2,5.2 -1.6,7.3 z"
   id="path8" />
		</g>
	</g>
	<g
   id="g18"
   transform="matrix(1.0122034,0,0,1.0122034,1.6503622,-1.4352605)">
		<g
   id="g16">
			<path
   class="st3"
   d="m 13.098567,47.789186 c 1.6,2.1 4.9,2.2 7.4,0.3 1,-0.8 2.8,-2.9 2.8,-7.2 v -13.3 l 19,-3.6 v 8.4 c 0,3 -2.4,3.7 -3.2,3.8 -0.1,0 -0.1,0 -0.2,0 0,0 -0.1,0 -0.1,0 v 0 c -1,0.2 -1.9,0.6 -2.8,1.2 -2.5,1.9 -3.2,5.1 -1.6,7.2 1.6,2.1 4.9,2.2 7.4,0.3 1.3,-1 2.5,-2.8 2.5,-5.7 v -22.3 c 0,-1.2 -1,-1.8 -2.1,-1.5 l -19.2,3.6 c -1.3,0.4 -1.8,1.7 -1.8,2.8 v 13 c 0,3 -2.7,4.4 -3.5,4.5 0,0 -0.1,0 -0.1,0 -0.1,0 -0.2,0 -0.2,0 v 0 c -0.9,0.2 -1.9,0.6 -2.7,1.2 -2.5,2 -3.2,5.2 -1.6,7.3 z"
   id="path14" />
		</g>
	</g>
</g>
<g
   id="Layer_2">
</g>
</svg>
